<svg fill="#1A1A1A" xmlns="http://www.w3.org/2000/svg"  viewBox="0 0 16 16" width="40px" height="40px"><path d="M 5 1 C 2.791 1 1 2.791 1 5 L 1 11 C 1 13.209 2.791 15 5 15 L 11 15 C 13.209 15 15 13.209 15 11 L 15 5 C 15 2.791 13.209 1 11 1 L 5 1 z M 5 2 L 11 2 C 12.657 2 14 3.343 14 5 L 14 11 C 14 12.657 12.657 14 11 14 L 5 14 C 3.343 14 2 12.657 2 11 L 2 5 C 2 3.343 3.343 2 5 2 z M 5 3 C 3.895 3 3 3.895 3 5 L 3 11 C 3 12.105 3.895 13 5 13 L 11 13 C 12.105 13 13 12.105 13 11 L 13 5 C 13 3.895 12.105 3 11 3 L 5 3 z M 11.5 4 C 11.776 4 12 4.224 12 4.5 C 12 4.776 11.776 5 11.5 5 C 11.224 5 11 4.776 11 4.5 C 11 4.224 11.224 4 11.5 4 z M 8 5 C 9.657 5 11 6.343 11 8 C 11 9.657 9.657 11 8 11 C 6.343 11 5 9.657 5 8 C 5 6.343 6.343 5 8 5 z M 8 6 A 2 2 0 0 0 8 10 A 2 2 0 0 0 8 6 z"/></svg>