<?xml version="1.0" encoding="UTF-8" standalone="no"?><svg width="632.7mm" height="152.07mm" version="1.1" viewBox="0 0 632.7 152.07" xmlns="http://www.w3.org/2000/svg">
 <path transform="translate(478.17,-23.766)" d="m-434.33 175.61c-30.458-3.0153-50.795-33.558-41.626-62.516 1.1442-3.6132 27.569-66.159 28.837-68.255 8.1369-13.452 28.548-12.507 35.672 1.6526 0.4759 0.94588 6.3726 14.519 13.104 30.163 6.7312 15.643 12.287 28.497 12.346 28.563 0.059 0.0664 6.115-5.8862 13.458-13.228l13.351-13.349v-44.911l-2.0505 0.18688c-11.477 1.046-23.191 7.8201-28.723 16.61l-0.791 1.2568h-11.569l0.902-1.7859c6.5578-12.984 20.121-22.942 34.703-25.477 37.477-6.5158 67.596 30.177 53.726 65.452-3.1861 8.1028-26.772 63.414-27.59 64.703-8.5585 13.472-28.261 12.769-35.503-1.268-0.5698-1.1044-6.3633-14.39-12.874-29.525-6.5112-15.134-12.067-28.046-12.346-28.693l-0.5072-1.1767-26.697 26.693v45.14l1.6536-0.16809c12.386-1.259 23.057-7.3782 29.167-16.725l0.735-1.1245h5.6534c3.1094 0 5.6514 0.0893 5.649 0.19843-0.011 0.48242-2.5342 4.8455-4.0748 7.0453-9.8941 14.128-27.496 22.233-44.604 20.539zm3.4396-21.649v-11.858l-32.859-32.75-0.7916 1.8406c-6.3934 14.866-4.1321 29.907 6.2872 41.821 6.285 7.1864 17.177 12.411 26.636 12.776l0.7276 0.0281zm71.702-35.767c0-19.791-0.09-35.983-0.1994-35.983-0.5807 0-25.532 25.377-25.403 25.836 0.1945 0.69202 16.775 39.1 17.573 40.707 1.359 2.737 4.9677 5.3642 7.4342 5.4123l0.5953 0.0116zm5.8094 35.063c1.6228-0.82236 2.9856-1.9991 3.9611-3.4203 0.6491-0.9457 24.361-56.638 24.361-57.217 0-0.27493-31.541-31.84-31.815-31.84-0.1096 0-0.1992 21.031-0.1992 46.735v46.735l1.189-0.16297c0.6539-0.0896 1.7806-0.46278 2.5038-0.82922zm-77.512-61.158v-46.733l-1.0728 0.17154c-1.791 0.2864-3.4759 1.2435-5.1506 2.9258 0 0-0.9068 1.1582-1.2664 1.7966-2.6042 4.6231-12.294 28.133-12.294 28.133-6.5817 15.581-11.967 28.439-11.967 28.574 0 0.20437 31.48 31.864 31.683 31.864 0.037 0 0.067-21.03 0.067-46.733zm19.715-19.851c-9.4872-22.033-9.5658-22.203-10.998-23.756-1.2209-1.3245-3.6534-2.6964-5.2272-2.9481l-1.1083-0.17722v72.166l25.746-25.746zm88.585 14.712c9.861-24.647-5.9948-50.375-32.695-53.05l-1.7859-0.17897v23.476l16.47 16.471c9.0582 9.0591 16.529 16.471 16.603 16.471 0.073-2.6e-4 0.707-1.435 1.4085-3.1882zm119.07 69.173c-8.4943-1.2157-16.063-6.1748-19.944-13.068-3.55-6.3045-4.2321-15.87-1.6383-22.977 3.49-9.5629 12.879-16.397 23.17-16.865 3.803-0.17291 6.0887 0.14402 9.6559 1.3389 3.2822 1.0994 6.3716 2.9373 8.9169 5.3048 5.6558 5.2606 8.1951 12.312 7.7985 21.655l-0.087 2.0505h-20.352c-16.669 0-20.352 0.0631-20.352 0.34885 0 0.79533 0.90702 3.3422 1.796 5.0432 1.8462 3.5323 4.9068 6.0843 8.9782 7.4861 1.7247 0.59381 2.6375 0.72708 5.6353 0.82276 5.6303 0.17971 9.0212-0.64994 12.837-3.1408l2.0168-1.3166 1.7648 1.574c0.97062 0.86569 2.2943 2.1184 2.9415 2.7837l1.1767 1.2097-0.77986 0.81968c-3.274 3.4411-8.8337 6.012-14.794 6.841-1.9557 0.27201-7.0973 0.32476-8.74 0.0897zm18.389-30.882c0-1.2084-1.3057-4.7695-2.2734-6.2006-2.0592-3.0451-5.6452-5.5667-9.2529-6.5064-3.4222-0.89136-7.9068-0.36266-11.244 1.3256-3.907 1.9763-7.4599 6.7707-8.2772 11.169l-0.15978 0.8599h31.208zm183.09 30.676c-7.7171-1.4666-14.449-6.535-17.92-13.492-2.1056-4.2206-2.8253-8.0333-2.6468-14.023 0.15216-5.1068 0.64786-7.2556 2.5761-11.168 2.177-4.4166 5.6262-8.1808 9.6646-10.547 6.5708-3.8507 15.178-4.6447 21.403-1.9743 2.969 1.2737 6.8752 4.512 8.229 6.822 1.0005 1.7072 1.1836 1.1854 1.1836-3.3734v-4.2333h10.583v51.329h-10.583v-4.101c0-4.5972-0.20362-5.0222-1.4154-2.9545-1.6324 2.7855-5.9481 5.8707-10.094 7.216-2.6542 0.86125-7.8349 1.0966-10.98 0.49892zm11.149-9.6649c4.3926-1.4733 8.0891-4.5545 9.837-8.1997 3.2911-6.8635 2.0818-15.686-2.8317-20.658-3.0802-3.117-6.5422-4.662-11.033-4.9236-3.9231-0.22859-6.9128 0.53701-10.197 2.6114-3.2515 2.0535-6.0375 6.0294-7.0162 10.013-0.58306 2.3731-0.44865 7.3993 0.26532 9.9219 1.7386 6.1427 6.1867 10.262 12.606 11.674 2.2161 0.48743 6.2376 0.27662 8.3706-0.4388zm57.739 9.793c-6.4231-1.1594-11.554-5.5667-13.88-11.922-1.6361-4.4701-1.6268-4.3479-1.7504-23.063l-0.11311-17.132h10.621v15.622c0 13.206 0.06469 15.937 0.41833 17.661 1.3014 6.3441 5.5319 9.845 11.885 9.835 2.5988-4e-3 3.9752-0.30744 6.2103-1.3688 2.1859-1.0379 5.3554-4.1552 6.5565-6.4484 1.6513-3.1528 1.653-3.1737 1.653-20.01v-15.29h10.319v51.329h-10.308l-0.1432-10.716-0.87165 1.6065c-2.4165 4.4538-6.7875 7.9853-11.648 9.4105-2.0456 0.59985-6.8668 0.86172-8.9482 0.48602zm59.7 0.0918c-6.8481-1.1077-12.402-3.906-16.492-8.3088-3.4266-3.6889-5.6328-8.3267-6.409-13.473-1.3858-9.187 1.1214-17.417 7.1392-23.435 3.0959-3.0958 7.2541-5.5451 11.719-6.9023 2.1218-0.64503 2.7141-0.70691 6.8214-0.71256 4.1539-6e-3 4.6801 0.0492 6.8792 0.71745 1.3097 0.39801 3.1127 1.0631 4.0067 1.4779 5.0695 2.3525 9.7796 7.0404 11.907 11.851 1.7298 3.9114 2.6634 9.3984 2.3414 13.762l-0.1805 2.4474h-20.348c-11.792 0-20.348 0.0995-20.348 0.23671 0 0.66013 1.2114 4.0572 1.9441 5.4518 1.2385 2.3573 3.8572 4.8519 6.4617 6.1555 3.1976 1.6005 5.3996 2.0086 9.9434 1.8428 5.1204-0.18677 7.936-1.0342 11.51-3.4644l1.4164-0.96312 0.96481 0.77464c0.53064 0.42604 1.8531 1.6747 2.9387 2.7748l1.9739 2.0001-0.91556 0.95568c-3.1407 3.2783-8.3902 5.7528-14.012 6.6054-2.2937 0.34779-7.6456 0.46638-9.2604 0.20519zm18.256-30.998c0-0.86606-0.89056-3.7046-1.5962-5.0879-1.4571-2.8562-4.7874-5.6571-8.3624-7.0332-1.4462-0.55668-2.4192-0.72461-4.7858-0.826-2.6658-0.11422-3.1964-0.0569-5.1718 0.55905-2.6137 0.81492-5.0562 2.3269-6.9606 4.3089-1.4799 1.5402-3.3053 4.7598-3.8057 6.7126-0.16783 0.65484-0.36561 1.399-0.4395 1.6536-0.1269 0.43726 0.73504 0.46302 15.494 0.46302h15.628zm-434.18-4.4093v-34.528l10.716 0.021 17.968 25.654c12.756 18.212 18.109 25.654 18.455 25.654 0.4689 0 0.48647-0.92724 0.48647-25.665v-25.665h10.583v69.056h-10.793l-17.953-25.596c-10.338-14.739-18.15-25.633-18.416-25.684-0.4384-0.0835-0.46302 1.2777-0.46302 25.596v25.684h-10.583zm131.21 33.801c-0.93657-2.4564-18.353-48.8-18.644-49.609l-0.35643-0.99219h10.455l6.8008 18.963c3.7405 10.43 6.8597 19.022 6.9316 19.094 0.0719 0.0719 0.17012 0.0812 0.21821 0.0205 0.0481-0.0606 3.4116-8.6527 7.4745-19.093l7.387-18.983 9.2791-1e-3 6.9816 17.926c3.8399 9.859 7.2126 18.461 7.495 19.116l0.51342 1.1906 0.44827-1.0583c0.24655-0.58208 3.3576-9.1844 6.9134-19.116l6.4652-18.058h10.444l-0.70961 1.9182c-0.39027 1.055-4.7131 12.574-9.6063 25.598l-8.8967 23.68-9.7636 0.1436-7.4006-19.448c-4.0703-10.697-7.4601-19.448-7.5329-19.448-0.0728-4e-5 -3.4582 8.7491-7.5232 19.443l-7.3909 19.443h-9.7052zm105.51 0.5347c-0.10832-0.18177-25.269-59.388-28.115-66.156l-1.1422-2.7171 11.39 0.1426 11.472 27.649c6.3097 15.207 11.556 27.649 11.658 27.649s5.3431-12.427 11.646-27.615c6.303-15.188 11.508-27.662 11.566-27.72 0.05818-0.0582 2.6152-0.0736 5.6822-0.0343l5.5764 0.0715-29.212 68.792-5.2004 0.0717c-2.8602 0.0394-5.2551-0.0201-5.322-0.13229zm88.983-34.732v-34.925h10.319v69.85h-10.319z" fill="#333"/>
</svg>
